
<svg width="1197" height="113" id="svg_2" viewBox="0 0 1197 113" preserveAspectRatio="xMidYMin slice" xmlns="http://www.w3.org/2000/svg" xmlns:xlink="http://www.w3.org/1999/xhtml" xmlns:ncbicdd="http://www.ncbi.nlm.nih/Structure/cdd"><defs><filter id="fltrDomLabel0" filterUnits="objectBoundingBox" x="0%" y="0%" width="100%" height="100%"><feComponentTransfer in="SourceGraphic" result="fltrDomLabel0_bgc"><feFuncR type="discrete" tableValues="1 1"></feFuncR><feFuncG type="discrete" tableValues="1 1"></feFuncG><feFuncB type="discrete" tableValues="1 1"></feFuncB></feComponentTransfer><feGaussianBlur in="fltrDomLabel0_bgc" stdDeviation="1.5" result="fltrDomLabel0_blur"></feGaussianBlur><feMerge><feMergeNode in="fltrDomLabel0_blur"></feMergeNode><feMergeNode in="SourceGraphic"></feMergeNode></feMerge></filter><filter id="fltrDomLabel1" filterUnits="objectBoundingBox" x="0%" y="0%" width="100%" height="100%"><feComponentTransfer in="SourceGraphic" result="fltrDomLabel1_bgc"><feFuncR type="discrete" tableValues="0 0"></feFuncR><feFuncG type="discrete" tableValues="0 0"></feFuncG><feFuncB type="discrete" tableValues="0 0"></feFuncB></feComponentTransfer><feGaussianBlur in="fltrDomLabel1_bgc" stdDeviation="1.5" result="fltrDomLabel1_blur"></feGaussianBlur><feMerge><feMergeNode in="fltrDomLabel1_blur"></feMergeNode><feMergeNode in="SourceGraphic"></feMergeNode></feMerge></filter></defs><style type="text/css">.lnlabel {fill: black; stroke: none; font-family: 'Public Sans','Source Sans Pro',Verdana,'Lucida Sans','Trebuchet MS','Gill Sans',Arial,sans-serif; font-size: 12px; font-weight: 800; text-anchor: left;}
.domlabel0 {fill: black; stroke: none; font-family: 'Public Sans','Source Sans Pro',Verdana,'Lucida Sans','Trebuchet MS','Gill Sans',Arial,sans-serif; font-weight: 800; text-anchor: middle; filter: url(#fltrDomLabel0);}
.domlabel1 {fill: white; stroke: none; font-family: 'Public Sans','Source Sans Pro',Verdana,'Lucida Sans','Trebuchet MS','Gill Sans',Arial,sans-serif; font-weight: 800; text-anchor: middle; filter: url(#fltrDomLabel1);}
.featlabel0 {fill: black; stroke: none; font-family: 'Public Sans','Source Sans Pro',Verdana,'Lucida Sans','Trebuchet MS','Gill Sans',Arial,sans-serif; font-weight: 800; text-anchor: right; filter: url(#fltrDomLabel0);}
.featlabel1 {fill: white; stroke: none; font-family: 'Public Sans','Source Sans Pro',Verdana,'Lucida Sans','Trebuchet MS','Gill Sans',Arial,sans-serif; font-weight: 800; text-anchor: right; filter: url(#fltrDomLabel1);}
.qseq {fill: rgb(204, 204, 204); stroke: none;}
.tqseq {font-family: 'Roboto Mono','Courier New',Courier,'Lucida Console',monospace}
.aseq {fill: rgb(204, 153, 153); stroke: none;}
.maskregion {fill: rgb(127, 255, 255); fill-opacity: 0.6; stroke: rgb(0, 255, 255);}</style><g><rect stroke="none" fill="#f0ffff" x="0" y="46" width="1186" height="31"></rect><rect stroke="none" fill="#fffff0" x="0" y="82" width="1186" height="31"></rect><rect fill="none" stroke="rgb(153,204,255)" x="280.4587155963303" y="46" width="525.137614678899" height="67"></rect><g><g id="Query_2_13" class="qseq"><title>lcl|Cow_exon_4_rna:undefined</title><path d="M120,21 120,41 1180,41 1180,21 Z" ncbicdd:interval="(0,217)"></path></g><g font-family="Merriweather,Georgia,Palatino,Garamond,Baskville,'Times New Roman',Times,serif" font-size="9" fill="blue"><text x="122" y="14" text-anchor="middle">1</text><line stroke="blue" x1="122" y1="20" x2="122" y2="16"></line><text x="215" y="14" text-anchor="middle">20</text><line stroke="blue" x1="215" y1="20" x2="215" y2="16"></line><text x="312" y="14" text-anchor="middle">40</text><line stroke="blue" x1="312" y1="20" x2="312" y2="16"></line><text x="409" y="14" text-anchor="middle">60</text><line stroke="blue" x1="409" y1="20" x2="409" y2="16"></line><text x="507" y="14" text-anchor="middle">80</text><line stroke="blue" x1="507" y1="20" x2="507" y2="16"></line><text x="604" y="14" text-anchor="middle">100</text><line stroke="blue" x1="604" y1="20" x2="604" y2="16"></line><text x="701" y="14" text-anchor="middle">120</text><line stroke="blue" x1="701" y1="20" x2="701" y2="16"></line><text x="798" y="14" text-anchor="middle">140</text><line stroke="blue" x1="798" y1="20" x2="798" y2="16"></line><text x="896" y="14" text-anchor="middle">160</text><line stroke="blue" x1="896" y1="20" x2="896" y2="16"></line><text x="993" y="14" text-anchor="middle">180</text><line stroke="blue" x1="993" y1="20" x2="993" y2="16"></line><text x="1090" y="14" text-anchor="middle">200</text><line stroke="blue" x1="1090" y1="20" x2="1090" y2="16"></line><text x="1178" y="14" text-anchor="middle">218</text><line stroke="blue" x1="1178" y1="20" x2="1178" y2="16"></line><line stroke="blue" x1="137" y1="20" x2="137" y2="18"></line><line stroke="blue" x1="156" y1="20" x2="156" y2="18"></line><line stroke="blue" x1="176" y1="20" x2="176" y2="18"></line><line stroke="blue" x1="195" y1="20" x2="195" y2="18"></line><line stroke="blue" x1="234" y1="20" x2="234" y2="18"></line><line stroke="blue" x1="254" y1="20" x2="254" y2="18"></line><line stroke="blue" x1="273" y1="20" x2="273" y2="18"></line><line stroke="blue" x1="293" y1="20" x2="293" y2="18"></line><line stroke="blue" x1="332" y1="20" x2="332" y2="18"></line><line stroke="blue" x1="351" y1="20" x2="351" y2="18"></line><line stroke="blue" x1="370" y1="20" x2="370" y2="18"></line><line stroke="blue" x1="390" y1="20" x2="390" y2="18"></line><line stroke="blue" x1="429" y1="20" x2="429" y2="18"></line><line stroke="blue" x1="448" y1="20" x2="448" y2="18"></line><line stroke="blue" x1="468" y1="20" x2="468" y2="18"></line><line stroke="blue" x1="487" y1="20" x2="487" y2="18"></line><line stroke="blue" x1="526" y1="20" x2="526" y2="18"></line><line stroke="blue" x1="545" y1="20" x2="545" y2="18"></line><line stroke="blue" x1="565" y1="20" x2="565" y2="18"></line><line stroke="blue" x1="584" y1="20" x2="584" y2="18"></line><line stroke="blue" x1="623" y1="20" x2="623" y2="18"></line><line stroke="blue" x1="643" y1="20" x2="643" y2="18"></line><line stroke="blue" x1="662" y1="20" x2="662" y2="18"></line><line stroke="blue" x1="682" y1="20" x2="682" y2="18"></line><line stroke="blue" x1="721" y1="20" x2="721" y2="18"></line><line stroke="blue" x1="740" y1="20" x2="740" y2="18"></line><line stroke="blue" x1="759" y1="20" x2="759" y2="18"></line><line stroke="blue" x1="779" y1="20" x2="779" y2="18"></line><line stroke="blue" x1="818" y1="20" x2="818" y2="18"></line><line stroke="blue" x1="837" y1="20" x2="837" y2="18"></line><line stroke="blue" x1="857" y1="20" x2="857" y2="18"></line><line stroke="blue" x1="876" y1="20" x2="876" y2="18"></line><line stroke="blue" x1="915" y1="20" x2="915" y2="18"></line><line stroke="blue" x1="934" y1="20" x2="934" y2="18"></line><line stroke="blue" x1="954" y1="20" x2="954" y2="18"></line><line stroke="blue" x1="973" y1="20" x2="973" y2="18"></line><line stroke="blue" x1="1012" y1="20" x2="1012" y2="18"></line><line stroke="blue" x1="1032" y1="20" x2="1032" y2="18"></line><line stroke="blue" x1="1051" y1="20" x2="1051" y2="18"></line><line stroke="blue" x1="1071" y1="20" x2="1071" y2="18"></line><line stroke="blue" x1="1109" y1="20" x2="1109" y2="18"></line><line stroke="blue" x1="1129" y1="20" x2="1129" y2="18"></line><line stroke="blue" x1="1148" y1="20" x2="1148" y2="18"></line><line stroke="blue" x1="1168" y1="20" x2="1168" y2="18"></line></g></g><text class="lnlabel" x="0" y="38" font-size="12">Query [RF +1]</text><g><a href="/Structure/cdd/cddsrv.cgi?uid=cd06361&amp;ascbin=8&amp;maxaln=10&amp;seltype=2&amp;query=STGVGCHCLLRFMDGGSSFHFYAHGAMNTGYNIVLWREINGHMSITRWHNMTXRMMSSLSQIKKQKMSTGIL&amp;aln=1,11,349,36" xlink:href="/Structure/cdd/cddsrv.cgi?uid=cd06361&amp;ascbin=8&amp;maxaln=10&amp;seltype=2&amp;query=STGVGCHCLLRFMDGGSSFHFYAHGAMNTGYNIVLWREINGHMSITRWHNMTXRMMSSLSQIKKQKMSTGIL&amp;aln=1,11,349,36" id="n_0_2_15" onmouseenter="domMouseEnter(this);" onmouseleave="defMouseLeave(this);"><g class="aseq dom"><path fill="rgb(204,255,255)" d="M280.4587155963303,46 291.7087155963303,61 284.2087155963303,68.5 291.7087155963303,70 280.4587155963303,76 791.5963302752293,76 805.5963302752293,46 Z" ncbicdd:interval="(33,140)"></path><text class="domlabel0" text-anchor="middle" style="font-size: 31" x="543" y="68">PBP1_GPC6A-like</text></g></a></g><text class="lnlabel" x="0" y="58" font-size="12">Non-specific hits</text><g class="svg-superfam"><a href="/Structure/cdd/cddsrv.cgi?uid=cl10011" xlink:href="/Structure/cdd/cddsrv.cgi?uid=cl10011" id="f_0_2_16" onmouseenter="domMouseEnter(this);" onmouseleave="defMouseLeave(this);"><g class="aseq dom"><path fill="rgb(204,255,255)" d="M280.4587155963303,82 280.4587155963303,112 805.5963302752293,112 805.5963302752293,82 Z" ncbicdd:interval="(33,140)"></path><text class="domlabel0" text-anchor="middle" style="font-size: 25" x="543" y="103">Periplasmic_Binding_Protein_type1</text></g></a></g><text class="lnlabel" x="0" y="94" font-size="12">Superfamily arch.</text></g></svg>